<?xml version="1.0" encoding="utf-8"?>
<!-- Generator: Adobe Illustrator 16.0.0, SVG Export Plug-In . SVG Version: 6.00 Build 0)  -->
<!DOCTYPE svg PUBLIC "-//W3C//DTD SVG 1.1//EN" "http://www.w3.org/Graphics/SVG/1.1/DTD/svg11.dtd">
<svg version="1.1" id="1" xmlns="http://www.w3.org/2000/svg" xmlns:xlink="http://www.w3.org/1999/xlink" x="0px" y="0px"
	 width="14.074px" height="20.485px" viewBox="0 0 14.074 20.485" enable-background="new 0 0 14.074 20.485" xml:space="preserve">
<g>
	<g>
		<path fill="#EAEAEA" d="M7.037,18.747L6.48,18.119C5.816,17.369,0,10.689,0,7.038C0,3.157,3.156,0,7.037,0
			c3.88,0,7.037,3.157,7.037,7.038c0,3.652-5.818,10.332-6.48,11.082L7.037,18.747z M7.037,1.486c-3.062,0-5.552,2.49-5.552,5.551
			c0,2.37,3.604,7.138,5.552,9.451c1.945-2.313,5.551-7.083,5.551-9.451C12.588,3.977,10.098,1.486,7.037,1.486z"/>
	</g>
	<g>
		<path fill="#EAEAEA" d="M7.037,20.485c-2.413,0-6.494-0.511-6.494-2.425c0-0.924,0.912-1.607,2.711-2.032
			c0.398-0.096,0.8,0.153,0.895,0.552c0.094,0.399-0.153,0.8-0.553,0.895c-0.891,0.21-1.327,0.448-1.5,0.587
			c0.414,0.337,2.083,0.938,4.941,0.938c2.855,0,4.524-0.601,4.94-0.937c-0.19-0.151-0.696-0.422-1.735-0.641
			c-0.401-0.085-0.658-0.479-0.574-0.881c0.086-0.4,0.479-0.658,0.881-0.573c1.979,0.417,2.982,1.12,2.982,2.093
			C13.531,19.975,9.449,20.485,7.037,20.485z"/>
	</g>
	<circle fill="#EAEAEA" cx="7.051" cy="6.923" r="1.606"/>
</g>
</svg>
