<?xml version="1.0" encoding="utf-8"?>
<!-- Generator: Adobe Illustrator 16.0.0, SVG Export Plug-In . SVG Version: 6.00 Build 0)  -->
<!DOCTYPE svg PUBLIC "-//W3C//DTD SVG 1.1//EN" "http://www.w3.org/Graphics/SVG/1.1/DTD/svg11.dtd">
<svg version="1.1" id="图层_1" xmlns="http://www.w3.org/2000/svg" xmlns:xlink="http://www.w3.org/1999/xlink" x="0px" y="0px"
	 width="7.667px" height="10.792px" viewBox="0 0 7.667 10.792" enable-background="new 0 0 7.667 10.792" xml:space="preserve">
<path fill="#AFAFAF" d="M6.697,5.148c-0.855,0-1.197-0.156-1.67-0.372l-0.29-0.129C4.649,4.61,4.556,4.548,4.467,4.497
	C4.521,4.167,4.569,3.854,4.61,3.575c0.753-0.151,1.332-0.784,1.332-1.581c0-0.908-0.737-1.644-1.646-1.644
	c-0.906,0-1.644,0.736-1.644,1.644c0,0.549,0.287,1.012,0.7,1.311c-0.027,0.188-0.056,0.374-0.085,0.56
	C2.835,3.705,2.347,3.64,1.807,3.845C1.24,4.062,0.557,4.899,0.361,5.151c-0.219,0.279-0.168,0.682,0.111,0.9
	c0.279,0.217,0.682,0.168,0.9-0.111c0.314-0.403,0.74-0.831,0.893-0.896c0.237-0.091,0.483-0.026,0.781,0.124
	c-0.089,0.481-0.17,0.849-0.223,0.971C1.967,8.115,1.018,8.525,1.021,8.525C0.686,8.643,0.509,9.008,0.625,9.342
	c0.093,0.266,0.341,0.432,0.606,0.432c0.07,0,0.142-0.012,0.211-0.036c0.13-0.046,1.172-0.46,2.162-2.276
	C3.972,7.895,4.312,8.516,3.9,9.092C3.693,9.38,3.759,9.781,4.047,9.986c0.112,0.082,0.243,0.12,0.373,0.12
	c0.199,0,0.396-0.093,0.521-0.269C5.96,8.416,5.005,6.952,4.145,6.166c0.026-0.107,0.053-0.217,0.079-0.343
	c0.002,0.001,0.005,0.003,0.008,0.004l0.263,0.118C5.02,6.184,5.564,6.432,6.697,6.432c0.355,0,0.642-0.287,0.642-0.642
	S7.052,5.148,6.697,5.148z"/>
</svg>
