<?xml version="1.0" encoding="utf-8"?>
<!-- Generator: Adobe Illustrator 16.0.0, SVG Export Plug-In . SVG Version: 6.00 Build 0)  -->
<!DOCTYPE svg PUBLIC "-//W3C//DTD SVG 1.1//EN" "http://www.w3.org/Graphics/SVG/1.1/DTD/svg11.dtd">
<svg version="1.1" id="图层_1" xmlns="http://www.w3.org/2000/svg" xmlns:xlink="http://www.w3.org/1999/xlink" x="0px" y="0px"
	 width="14.209px" height="10.792px" viewBox="0 0 14.209 10.792" enable-background="new 0 0 14.209 10.792" xml:space="preserve">
<path fill="#AFAFAF" d="M13.08,5.149c-0.855,0-1.197-0.156-1.67-0.371l-0.29-0.13c-0.088-0.038-0.181-0.099-0.27-0.151
	c0.054-0.328,0.102-0.643,0.143-0.922c0.753-0.15,1.332-0.783,1.332-1.581c0-0.908-0.737-1.644-1.646-1.644
	c-0.906,0-1.644,0.736-1.644,1.644c0,0.549,0.287,1.012,0.7,1.311C9.709,3.493,9.681,3.678,9.651,3.864
	C9.219,3.706,8.73,3.64,8.19,3.845C7.623,4.062,6.94,4.899,6.744,5.151c-0.219,0.279-0.168,0.683,0.111,0.9s0.682,0.168,0.9-0.111
	c0.314-0.402,0.74-0.83,0.893-0.895C8.886,4.954,9.132,5.018,9.43,5.168c-0.089,0.48-0.17,0.849-0.223,0.97
	C8.351,8.116,7.401,8.526,7.404,8.526C7.069,8.644,6.893,9.009,7.008,9.343c0.093,0.266,0.341,0.432,0.606,0.432
	c0.07,0,0.142-0.012,0.211-0.037c0.13-0.045,1.172-0.459,2.162-2.275c0.368,0.434,0.708,1.055,0.296,1.631
	c-0.207,0.287-0.141,0.689,0.147,0.895c0.112,0.082,0.243,0.119,0.373,0.119c0.199,0,0.396-0.092,0.521-0.268
	c1.019-1.422,0.063-2.887-0.797-3.673c0.026-0.107,0.053-0.217,0.079-0.342c0.002,0,0.005,0.002,0.008,0.004l0.263,0.117
	c0.525,0.238,1.069,0.487,2.202,0.487c0.355,0,0.642-0.288,0.642-0.642C13.722,5.436,13.436,5.149,13.08,5.149z"/>
<g>
	<path fill="#AFAFAF" d="M5.8,7.595H2.05c-0.276,0-0.5-0.225-0.5-0.5c0-0.277,0.224-0.5,0.5-0.5H5.8c0.276,0,0.5,0.223,0.5,0.5
		C6.3,7.37,6.076,7.595,5.8,7.595z"/>
</g>
<g>
	<path fill="#AFAFAF" d="M5.8,5.813h-2c-0.276,0-0.5-0.223-0.5-0.5c0-0.276,0.224-0.5,0.5-0.5h2c0.276,0,0.5,0.224,0.5,0.5
		C6.3,5.59,6.076,5.813,5.8,5.813z"/>
</g>
<g>
	<path fill="#AFAFAF" d="M5.8,9.376H0.709c-0.276,0-0.5-0.225-0.5-0.5c0-0.277,0.224-0.5,0.5-0.5H5.8c0.276,0,0.5,0.223,0.5,0.5
		C6.3,9.151,6.076,9.376,5.8,9.376z"/>
</g>
</svg>
